<?xml version="1.0" encoding="utf-8"?>
<!-- Generator: Adobe Illustrator 23.0.0, SVG Export Plug-In . SVG Version: 6.00 Build 0)  -->
<svg version="1.1" xmlns="http://www.w3.org/2000/svg" xmlns:xlink="http://www.w3.org/1999/xlink" x="0px" y="0px"
	 viewBox="0 0 490.7 490.7" style="enable-background:new 0 0 490.7 490.7;" xml:space="preserve">
<style type="text/css">
	.st0{fill:url(#SVGID_1_);}
	.st1{fill:#334349;}
	.st2{fill:#00CFC1;}
</style>
<g id="Layer_2">
	<radialGradient id="SVGID_1_" cx="245.337" cy="245.337" r="239.016" gradientUnits="userSpaceOnUse">
		<stop  offset="0.4637" style="stop-color:#FFBB33"/>
		<stop  offset="1" style="stop-color:#EE5522"/>
	</radialGradient>
	<path class="st0" d="M245.3,6.3c-132,0-239,107-239,239s107,239,239,239s239-107,239-239S377.3,6.3,245.3,6.3z M248.3,403.8
		c-87.5,1.6-159.8-68-161.4-155.6s68-159.8,155.6-161.4s159.8,68,161.4,155.6S335.8,402.2,248.3,403.8z"/>
</g>
<g id="Capa_1">
	<g>
		<circle class="st1" cx="340.4" cy="405.3" r="37.5"/>
		
			<ellipse transform="matrix(7.088903e-02 -0.9975 0.9975 7.088903e-02 -227.4378 566.3724)" class="st1" cx="190.3" cy="405.3" rx="37.5" ry="37.5"/>
	</g>
	<path class="st1" d="M358.7,49.9v165.1H325V120c0-2.2,0.1-4.6,0.2-7.1c0.1-2.6,0.3-5.2,0.6-7.8l-43.8,84.9c-1.4,2.6-3.2,4.6-5.5,6
		c-2.3,1.4-4.9,2-7.9,2h-5.2c-2.9,0-5.6-0.7-7.9-2c-2.3-1.4-4.1-3.4-5.5-6l-43.8-85.1c0.2,2.7,0.4,5.4,0.6,8c0.2,2.6,0.2,5,0.2,7.2
		v94.9h-33.8V49.9h29.2c1.7,0,3.1,0,4.4,0.1c1.2,0.1,2.4,0.3,3.3,0.7c1,0.4,1.9,1,2.7,1.8c0.8,0.8,1.6,1.9,2.3,3.3l42.5,83.7
		c1.5,2.9,3,5.9,4.4,9c1.4,3.1,2.7,6.3,4,9.5c1.3-3.3,2.6-6.6,4-9.7c1.4-3.2,2.9-6.2,4.5-9.1l42.4-83.4c0.8-1.4,1.5-2.5,2.3-3.3
		c0.8-0.8,1.7-1.4,2.7-1.8c1-0.4,2.1-0.6,3.3-0.7c1.2-0.1,2.7-0.1,4.4-0.1H358.7z"/>
	<path class="st2" d="M406.1,160.2c-1.4-1.6-3.5-2.5-5.6-2.5H130.3c-4.1,0-7.5,3.4-7.5,7.5c0,0.5,0.1,1,0.2,1.5l30,150.1
		c0.7,3.5,3.8,6,7.4,6c0.3,0,0.7,0,1,0l225.1-30c3.4-0.5,6-3.1,6.5-6.5l15-120.1C408.2,164,407.5,161.8,406.1,160.2z M191.5,292.6
		c-0.4,0.1-0.8,0.1-1.2,0.1c-3.7,0-6.8-2.7-7.4-6.3l-15-90.1c-0.6-4.1,2.3-7.9,6.4-8.4c3.9-0.5,7.6,2.1,8.4,6l15,90.1
		C198.4,288.1,195.6,291.9,191.5,292.6z M228.5,285.1L228.5,285.1l-0.7,0.1c-3.9,0-7.2-2.9-7.5-6.8l-7.5-82.5
		c-0.4-4.1,2.6-7.8,6.8-8.2c0,0,0,0,0.1,0c4.1-0.4,7.8,2.7,8.1,6.8v0l7.5,82.5C235.7,281.1,232.6,284.8,228.5,285.1z M272.9,270.2
		c0,4.1-3.4,7.5-7.5,7.5s-7.5-3.4-7.5-7.5v-75c0-4.1,3.4-7.5,7.5-7.5s7.5,3.4,7.5,7.5V270.2z M317.8,195.9L317.8,195.9l-7.5,67.5
		c-0.4,3.8-3.6,6.7-7.5,6.7H302c-4.1-0.4-7.1-4.1-6.7-8.3c0,0,0-0.1,0-0.1l7.5-67.5c0.5-4.1,4.2-7.1,8.3-6.7
		C315.3,188.1,318.3,191.8,317.8,195.9z M362.8,196.6c0,0.1-0.1,0.2-0.1,0.3l-15,60c-0.8,3.3-3.8,5.7-7.3,5.7
		c-4.1,0-7.5-3.4-7.5-7.5c0-0.6,0.1-1.2,0.2-1.8l15-60c0.9-4,4.9-6.6,9-5.7C361.1,188.6,363.7,192.6,362.8,196.6z"/>
	<path class="st1" d="M370.4,352.7H197.2c-25-0.1-46.5-17.7-51.5-42.2l-36.6-182.9H70.2c-4.1,0-7.5-3.4-7.5-7.5
		c0-4.1,3.4-7.5,7.5-7.5h45c3.6,0,6.6,2.5,7.4,6l37.8,189c3.5,17.5,18.9,30.1,36.8,30.2h173.2c4.1,0,7.5,3.4,7.5,7.5
		S374.6,352.7,370.4,352.7z"/>
</g>
</svg>
