<?xml version="1.0" encoding="utf-8"?>
<!-- Generator: Adobe Illustrator 23.0.0, SVG Export Plug-In . SVG Version: 6.00 Build 0)  -->
<svg version="1.1" id="Layer_1" xmlns="http://www.w3.org/2000/svg" xmlns:xlink="http://www.w3.org/1999/xlink" x="0px" y="0px"
	 viewBox="0 0 12 12" style="enable-background:new 0 0 12 12;" xml:space="preserve">
<style type="text/css">
	.st0{fill-rule:evenodd;clip-rule:evenodd;fill:#FFFFFF;}
</style>
<path class="st0" d="M6,2.6c0.2,0,0.4,0.2,0.4,0.4v3c0,0.2-0.2,0.4-0.4,0.4H3C2.8,6.4,2.6,6.2,2.6,6c0-0.2,0.2-0.4,0.4-0.4h2.6V3
	C5.6,2.8,5.8,2.6,6,2.6z"/>
<path class="st0" d="M5.6,6c0-0.2,0.2-0.4,0.4-0.4h3c0.2,0,0.4,0.2,0.4,0.4c0,0.2-0.2,0.4-0.4,0.4H6.4V9c0,0.2-0.2,0.4-0.4,0.4
	C5.8,9.4,5.6,9.2,5.6,9V6z"/>
</svg>
